<svg width="25" height="26" viewBox="0 0 25 26" fill="none" xmlns="http://www.w3.org/2000/svg">
<path d="M24.691 20.9099C24.6789 20.7526 24.6086 20.6013 24.4932 20.4884L14.5275 10.5227C14.9195 9.59899 15.1265 8.59871 15.1265 7.56496C15.1265 5.54469 14.3385 3.64384 12.9123 2.21409C11.4841 0.78719 9.58457 0 7.56314 0C5.54074 0 3.64451 0.787457 2.21396 2.21525C-0.737602 5.16521 -0.738224 9.96338 2.21352 12.9131C3.64397 14.3439 5.54083 15.1319 7.56217 15.1319C8.59618 15.1319 9.59398 14.9232 10.5199 14.5306L13.7938 17.807C13.93 17.9416 14.1096 18.0129 14.3034 18.0066L16.0876 17.944L16.0294 19.7327C16.0239 19.9213 16.092 20.105 16.2287 20.2393C16.3605 20.3735 16.5456 20.4465 16.7335 20.4389L18.5242 20.3777L18.4599 22.1644C18.4544 22.3532 18.5269 22.5372 18.6586 22.6715C18.7948 22.8058 18.9535 22.878 19.1683 22.8714L20.9546 22.8107L20.8948 24.5976C20.8843 24.7958 20.9677 24.9864 21.1095 25.1217C21.2401 25.2406 21.4032 25.3046 21.5751 25.3046C21.5998 25.3046 21.6251 25.3036 21.6503 25.3013L24.3895 24.9971C24.7597 24.9567 25.0292 24.6265 24.9975 24.2555L24.691 20.9099ZM6.64943 6.65152C5.80808 7.49198 4.44785 7.49198 3.60828 6.65152C2.76746 5.81079 2.76746 4.45083 3.60828 3.6109C4.44785 2.77097 5.80764 2.77017 6.64943 3.61063C7.48909 4.45047 7.48856 5.81132 6.64943 6.65152ZM22.3527 21.1381C22.2528 21.2381 22.1188 21.288 21.9886 21.288C21.8585 21.288 21.7244 21.238 21.6245 21.1381L13.1452 12.6563C13.3813 12.4018 13.596 12.1338 13.791 11.8521L22.3527 20.4121C22.5526 20.612 22.5526 20.9382 22.3527 21.1381Z" fill="white"/>
</svg>
